<svg xmlns="http://www.w3.org/2000/svg" xmlns:xlink="http://www.w3.org/1999/xlink" width="500" zoomAndPan="magnify" viewBox="0 0 375 374.999991" height="500" preserveAspectRatio="xMidYMid meet" version="1.0"><defs><clipPath id="202483e5e5"><path d="M 43.0625 43.0625 L 331.8125 43.0625 L 331.8125 331.8125 L 43.0625 331.8125 Z M 43.0625 43.0625 " clip-rule="nonzero"/></clipPath></defs><g clip-path="url(#202483e5e5)"><path fill="#ffffff" d="M 261.820312 331.929688 L 113.9375 331.929688 C 74.863281 331.929688 43.445312 300.515625 43.445312 261.4375 L 43.445312 113.554688 C 43.445312 74.476562 74.863281 43.0625 113.9375 43.0625 L 261.054688 43.0625 C 300.132812 43.0625 331.546875 74.476562 331.546875 113.554688 L 331.546875 260.671875 C 331.546875 299.75 300.132812 331.164062 261.054688 331.164062 Z M 113.9375 66.050781 C 87.886719 66.050781 66.433594 87.503906 66.433594 113.554688 L 66.433594 260.671875 C 66.433594 286.722656 87.886719 308.175781 113.9375 308.175781 L 261.054688 308.175781 C 287.105469 308.175781 308.558594 286.722656 308.558594 260.671875 L 308.558594 113.554688 C 308.558594 87.503906 287.105469 66.050781 261.054688 66.050781 Z M 113.9375 66.050781 " fill-opacity="1" fill-rule="nonzero"/></g><path fill="#ffffff" d="M 188.261719 280.59375 C 137.691406 280.59375 97.082031 239.984375 97.082031 189.414062 C 97.082031 138.839844 137.691406 98.230469 188.261719 98.230469 C 238.832031 98.230469 279.445312 138.839844 279.445312 189.414062 C 279.445312 239.984375 238.832031 280.59375 188.261719 280.59375 Z M 188.261719 120.453125 C 149.953125 120.453125 119.300781 151.101562 119.300781 189.414062 C 119.300781 227.722656 149.953125 258.371094 188.261719 258.371094 C 226.574219 258.371094 257.222656 227.722656 257.222656 189.414062 C 257.222656 151.101562 226.574219 120.453125 188.261719 120.453125 Z M 188.261719 120.453125 " fill-opacity="1" fill-rule="nonzero"/><path fill="#ffffff" d="M 188.261719 230.789062 C 165.277344 230.789062 146.886719 212.398438 146.886719 189.414062 C 146.886719 166.425781 165.277344 148.035156 188.261719 148.035156 C 211.25 148.035156 229.640625 166.425781 229.640625 189.414062 C 229.640625 212.398438 211.25 230.789062 188.261719 230.789062 Z M 188.261719 171.023438 C 178.300781 171.023438 169.875 179.453125 169.875 189.414062 C 169.875 199.375 178.300781 207.800781 188.261719 207.800781 C 198.222656 207.800781 206.652344 199.375 206.652344 189.414062 C 206.652344 179.453125 198.222656 171.023438 188.261719 171.023438 Z M 188.261719 171.023438 " fill-opacity="1" fill-rule="nonzero"/><path fill="#ffffff" d="M 287.105469 103.59375 C 287.105469 104.601562 287.007812 105.597656 286.8125 106.585938 C 286.617188 107.570312 286.324219 108.53125 285.941406 109.460938 C 285.554688 110.390625 285.082031 111.273438 284.523438 112.109375 C 283.964844 112.945312 283.328125 113.71875 282.617188 114.429688 C 281.90625 115.144531 281.132812 115.777344 280.296875 116.335938 C 279.457031 116.894531 278.574219 117.367188 277.644531 117.753906 C 276.714844 118.136719 275.757812 118.429688 274.769531 118.625 C 273.785156 118.820312 272.789062 118.917969 271.78125 118.917969 C 270.773438 118.917969 269.777344 118.820312 268.792969 118.625 C 267.804688 118.429688 266.847656 118.136719 265.917969 117.753906 C 264.988281 117.367188 264.105469 116.894531 263.269531 116.335938 C 262.429688 115.777344 261.65625 115.144531 260.945312 114.429688 C 260.234375 113.71875 259.597656 112.945312 259.039062 112.109375 C 258.480469 111.273438 258.007812 110.390625 257.625 109.460938 C 257.238281 108.53125 256.949219 107.570312 256.75 106.585938 C 256.554688 105.597656 256.457031 104.601562 256.457031 103.59375 C 256.457031 102.589844 256.554688 101.59375 256.75 100.605469 C 256.949219 99.617188 257.238281 98.660156 257.625 97.730469 C 258.007812 96.800781 258.480469 95.917969 259.039062 95.082031 C 259.597656 94.246094 260.234375 93.46875 260.945312 92.757812 C 261.65625 92.046875 262.429688 91.414062 263.269531 90.851562 C 264.105469 90.292969 264.988281 89.820312 265.917969 89.4375 C 266.847656 89.050781 267.804688 88.761719 268.792969 88.566406 C 269.777344 88.367188 270.773438 88.269531 271.78125 88.269531 C 272.789062 88.269531 273.785156 88.367188 274.769531 88.566406 C 275.757812 88.761719 276.714844 89.050781 277.644531 89.4375 C 278.574219 89.820312 279.457031 90.292969 280.296875 90.851562 C 281.132812 91.414062 281.90625 92.046875 282.617188 92.757812 C 283.328125 93.46875 283.964844 94.246094 284.523438 95.082031 C 285.082031 95.917969 285.554688 96.800781 285.941406 97.730469 C 286.324219 98.660156 286.617188 99.617188 286.8125 100.605469 C 287.007812 101.59375 287.105469 102.589844 287.105469 103.59375 Z M 287.105469 103.59375 " fill-opacity="1" fill-rule="nonzero"/></svg>