<svg xmlns="http://www.w3.org/2000/svg" xmlns:xlink="http://www.w3.org/1999/xlink" width="500" zoomAndPan="magnify" viewBox="0 0 375 374.999991" height="500" preserveAspectRatio="xMidYMid meet" version="1.0"><defs><clipPath id="beefc99250"><path d="M 48.96875 48.96875 L 325.71875 48.96875 L 325.71875 325.71875 L 48.96875 325.71875 Z M 48.96875 48.96875 " clip-rule="nonzero"/></clipPath></defs><path fill="#ffffff" d="M 113.558594 149.449219 L 134.050781 149.449219 C 134.570312 149.449219 135.074219 149.550781 135.554688 149.75 C 136.035156 149.949219 136.460938 150.234375 136.828125 150.601562 C 137.199219 150.96875 137.480469 151.394531 137.683594 151.875 C 137.882812 152.359375 137.980469 152.859375 137.980469 153.378906 L 137.980469 266.09375 C 137.980469 266.617188 137.882812 267.117188 137.683594 267.597656 C 137.480469 268.078125 137.199219 268.503906 136.828125 268.875 C 136.460938 269.242188 136.035156 269.527344 135.554688 269.726562 C 135.074219 269.925781 134.570312 270.023438 134.050781 270.023438 L 113.558594 270.023438 C 113.039062 270.023438 112.535156 269.925781 112.054688 269.726562 C 111.574219 269.527344 111.148438 269.242188 110.78125 268.875 C 110.410156 268.503906 110.128906 268.078125 109.929688 267.597656 C 109.730469 267.117188 109.628906 266.617188 109.628906 266.09375 L 109.628906 153.378906 C 109.628906 152.859375 109.730469 152.359375 109.929688 151.875 C 110.128906 151.394531 110.410156 150.96875 110.78125 150.601562 C 111.148438 150.234375 111.574219 149.949219 112.054688 149.75 C 112.535156 149.550781 113.039062 149.449219 113.558594 149.449219 Z M 113.558594 149.449219 " fill-opacity="1" fill-rule="nonzero"/><path fill="#ffffff" d="M 140.3125 121.644531 C 140.28125 111.980469 133.347656 104.96875 123.804688 104.96875 C 114.265625 104.96875 107.066406 112.164062 107.066406 121.710938 C 107.066406 126.148438 108.6875 130.28125 111.628906 133.339844 C 114.648438 136.484375 118.808594 138.214844 123.339844 138.214844 C 128.359375 138.214844 132.84375 136.445312 135.960938 133.214844 C 138.882812 130.191406 140.425781 126.109375 140.3125 121.710938 C 140.3125 121.6875 140.3125 121.671875 140.3125 121.644531 Z M 140.3125 121.644531 " fill-opacity="1" fill-rule="nonzero"/><path fill="#ffffff" d="M 252.558594 157.378906 C 242.355469 148.25 230.394531 146.886719 224.175781 146.886719 C 214.878906 146.886719 206.023438 149.371094 198.558594 154.070312 C 195.296875 156.125 192.347656 158.5625 189.71875 161.378906 L 189.203125 153.125 C 189.171875 152.628906 189.050781 152.152344 188.835938 151.699219 C 188.621094 151.246094 188.332031 150.847656 187.96875 150.503906 C 187.601562 150.164062 187.1875 149.898438 186.722656 149.714844 C 186.257812 149.53125 185.773438 149.441406 185.273438 149.441406 L 167.117188 149.441406 C 166.847656 149.441406 166.582031 149.46875 166.316406 149.527344 C 166.050781 149.582031 165.796875 149.664062 165.546875 149.769531 C 165.300781 149.878906 165.066406 150.011719 164.84375 150.167969 C 164.625 150.324219 164.421875 150.5 164.238281 150.699219 C 164.054688 150.898438 163.894531 151.113281 163.753906 151.34375 C 163.613281 151.578125 163.5 151.820312 163.410156 152.074219 C 163.320312 152.332031 163.257812 152.59375 163.222656 152.859375 C 163.1875 153.128906 163.179688 153.398438 163.199219 153.667969 C 163.84375 162.269531 164.121094 171.304688 164.121094 183.878906 L 164.121094 266.09375 C 164.121094 266.617188 164.21875 267.117188 164.417969 267.597656 C 164.617188 268.078125 164.902344 268.503906 165.269531 268.875 C 165.640625 269.242188 166.066406 269.527344 166.546875 269.726562 C 167.027344 269.925781 167.527344 270.023438 168.050781 270.023438 L 188.542969 270.023438 C 189.066406 270.023438 189.566406 269.925781 190.046875 269.726562 C 190.53125 269.527344 190.953125 269.242188 191.324219 268.875 C 191.691406 268.503906 191.976562 268.078125 192.175781 267.597656 C 192.375 267.117188 192.472656 266.617188 192.472656 266.09375 L 192.472656 198.324219 C 192.472656 195.140625 192.898438 192.148438 193.636719 190.121094 C 193.65625 190.058594 193.679688 189.992188 193.699219 189.925781 C 196.46875 180.886719 204.878906 171.746094 217.421875 171.746094 C 225.183594 171.746094 230.757812 174.398438 234.457031 179.859375 C 237.800781 184.796875 239.566406 192.148438 239.566406 201.117188 L 239.566406 266.09375 C 239.566406 266.617188 239.667969 267.117188 239.867188 267.597656 C 240.066406 268.078125 240.351562 268.503906 240.71875 268.875 C 241.085938 269.242188 241.511719 269.527344 241.992188 269.726562 C 242.476562 269.925781 242.976562 270.023438 243.496094 270.023438 L 263.992188 270.023438 C 264.511719 270.023438 265.015625 269.925781 265.496094 269.726562 C 265.976562 269.527344 266.402344 269.242188 266.769531 268.875 C 267.140625 268.503906 267.421875 268.078125 267.621094 267.597656 C 267.820312 267.117188 267.921875 266.617188 267.921875 266.09375 L 267.921875 198.792969 C 267.921875 189.203125 266.472656 180.703125 263.613281 173.53125 C 261.046875 167.082031 257.328125 161.648438 252.558594 157.378906 Z M 252.558594 157.378906 " fill-opacity="1" fill-rule="nonzero"/><g clip-path="url(#beefc99250)"><path fill="#ffffff" d="M 289.957031 48.96875 L 85.039062 48.96875 C 65.148438 48.96875 48.96875 65.152344 48.96875 85.039062 L 48.96875 289.957031 C 48.96875 309.84375 65.148438 326.023438 85.039062 326.023438 L 289.957031 326.023438 C 309.84375 326.023438 326.023438 309.84375 326.023438 289.957031 L 326.023438 85.039062 C 326.023438 65.152344 309.84375 48.96875 289.957031 48.96875 Z M 300.699219 86.785156 L 300.699219 288.210938 C 300.699219 289.027344 300.617188 289.839844 300.457031 290.644531 C 300.296875 291.449219 300.058594 292.230469 299.742188 292.988281 C 299.429688 293.742188 299.046875 294.464844 298.589844 295.144531 C 298.132812 295.828125 297.617188 296.457031 297.035156 297.035156 C 296.457031 297.617188 295.828125 298.132812 295.144531 298.589844 C 294.464844 299.046875 293.742188 299.429688 292.988281 299.746094 C 292.230469 300.058594 291.449219 300.296875 290.644531 300.457031 C 289.839844 300.617188 289.027344 300.699219 288.210938 300.699219 L 86.785156 300.699219 C 85.964844 300.699219 85.152344 300.617188 84.347656 300.457031 C 83.546875 300.296875 82.765625 300.058594 82.007812 299.746094 C 81.25 299.429688 80.53125 299.046875 79.847656 298.589844 C 79.167969 298.132812 78.539062 297.617188 77.957031 297.035156 C 77.378906 296.457031 76.859375 295.828125 76.40625 295.144531 C 75.949219 294.464844 75.5625 293.742188 75.25 292.988281 C 74.9375 292.230469 74.699219 291.449219 74.539062 290.644531 C 74.378906 289.839844 74.296875 289.027344 74.296875 288.210938 L 74.296875 86.785156 C 74.296875 85.964844 74.378906 85.152344 74.539062 84.347656 C 74.699219 83.546875 74.9375 82.765625 75.25 82.007812 C 75.5625 81.25 75.949219 80.53125 76.40625 79.847656 C 76.859375 79.167969 77.378906 78.539062 77.957031 77.957031 C 78.539062 77.378906 79.167969 76.859375 79.847656 76.40625 C 80.53125 75.949219 81.25 75.5625 82.007812 75.25 C 82.765625 74.9375 83.546875 74.699219 84.347656 74.539062 C 85.152344 74.378906 85.964844 74.296875 86.785156 74.296875 L 288.210938 74.296875 C 289.027344 74.296875 289.839844 74.378906 290.644531 74.539062 C 291.449219 74.699219 292.230469 74.9375 292.988281 75.25 C 293.742188 75.5625 294.464844 75.949219 295.144531 76.40625 C 295.828125 76.859375 296.457031 77.378906 297.035156 77.957031 C 297.617188 78.539062 298.132812 79.167969 298.589844 79.847656 C 299.046875 80.53125 299.429688 81.25 299.742188 82.007812 C 300.058594 82.765625 300.296875 83.546875 300.457031 84.347656 C 300.617188 85.152344 300.699219 85.964844 300.699219 86.785156 Z M 300.699219 86.785156 " fill-opacity="1" fill-rule="nonzero"/></g></svg>