<svg xmlns="http://www.w3.org/2000/svg" xmlns:xlink="http://www.w3.org/1999/xlink" width="500" zoomAndPan="magnify" viewBox="0 0 375 374.999991" height="500" preserveAspectRatio="xMidYMid meet" version="1.0"><defs><clipPath id="0916bc5360"><path d="M 42.386719 42.386719 L 332.636719 42.386719 L 332.636719 332.636719 L 42.386719 332.636719 Z M 42.386719 42.386719 " clip-rule="nonzero"/></clipPath></defs><g clip-path="url(#0916bc5360)"><path fill="#ffffff" d="M 91.519531 42.386719 L 283.472656 42.386719 C 296.988281 42.386719 309.273438 47.914062 318.175781 56.816406 C 327.078125 65.71875 332.605469 78.003906 332.605469 91.519531 L 332.605469 283.472656 C 332.605469 296.988281 327.078125 309.273438 318.175781 318.175781 C 309.273438 327.078125 296.988281 332.605469 283.472656 332.605469 L 91.519531 332.605469 C 78.003906 332.605469 65.71875 327.078125 56.816406 318.175781 C 47.914062 309.273438 42.386719 296.988281 42.386719 283.472656 L 42.386719 91.519531 C 42.386719 78.003906 47.914062 65.71875 56.816406 56.816406 C 65.71875 47.914062 78.003906 42.386719 91.519531 42.386719 Z M 283.472656 50.324219 L 91.519531 50.324219 C 80.195312 50.324219 69.894531 54.957031 62.425781 62.425781 C 54.957031 69.894531 50.324219 80.195312 50.324219 91.519531 L 50.324219 283.472656 C 50.324219 294.800781 54.957031 305.097656 62.425781 312.566406 C 69.894531 320.035156 80.195312 324.671875 91.519531 324.671875 L 283.472656 324.671875 C 294.800781 324.671875 305.101562 320.035156 312.566406 312.566406 C 320.035156 305.097656 324.671875 294.800781 324.671875 283.472656 L 324.671875 91.519531 C 324.671875 80.195312 320.035156 69.894531 312.566406 62.425781 C 305.097656 54.957031 294.800781 50.324219 283.472656 50.324219 Z M 283.472656 50.324219 " fill-opacity="1" fill-rule="nonzero"/></g><path fill="#ffffff" d="M 100.371094 60.246094 L 274.621094 60.246094 C 285.65625 60.246094 295.691406 64.757812 302.960938 72.03125 C 310.230469 79.300781 314.746094 89.332031 314.746094 100.371094 L 314.746094 274.621094 C 314.746094 285.65625 310.230469 295.691406 302.960938 302.960938 C 295.6875 310.230469 285.65625 314.746094 274.621094 314.746094 L 100.371094 314.746094 C 89.332031 314.746094 79.300781 310.230469 72.03125 302.960938 C 64.761719 295.6875 60.246094 285.65625 60.246094 274.621094 L 60.246094 100.371094 C 60.246094 89.332031 64.757812 79.300781 72.03125 72.03125 C 79.300781 64.757812 89.332031 60.246094 100.371094 60.246094 Z M 274.621094 68.183594 L 100.371094 68.183594 C 91.523438 68.183594 83.476562 71.804688 77.640625 77.640625 C 71.804688 83.476562 68.183594 91.523438 68.183594 100.371094 L 68.183594 274.621094 C 68.183594 283.46875 71.804688 291.515625 77.640625 297.351562 C 83.476562 303.183594 91.523438 306.808594 100.371094 306.808594 L 274.621094 306.808594 C 283.46875 306.808594 291.515625 303.1875 297.351562 297.351562 C 303.183594 291.515625 306.808594 283.46875 306.808594 274.621094 L 306.808594 100.371094 C 306.808594 91.523438 303.1875 83.476562 297.351562 77.640625 C 291.515625 71.804688 283.46875 68.183594 274.621094 68.183594 Z M 274.621094 68.183594 " fill-opacity="1" fill-rule="nonzero"/><path fill="#ffffff" d="M 106.257812 108.050781 L 157.800781 108.050781 C 159.210938 108.050781 160.449219 108.789062 161.152344 109.894531 L 271.921875 260.632812 C 273.214844 262.398438 272.832031 264.875 271.070312 266.167969 C 270.367188 266.683594 269.542969 266.933594 268.730469 266.933594 L 268.730469 266.941406 L 217.191406 266.941406 C 215.78125 266.941406 214.542969 266.207031 213.839844 265.097656 L 103.066406 114.359375 C 101.773438 112.597656 102.15625 110.121094 103.917969 108.828125 C 104.625 108.308594 105.445312 108.058594 106.257812 108.0625 Z M 155.804688 115.988281 L 114.089844 115.988281 L 219.1875 259.007812 L 260.902344 259.007812 Z M 155.804688 115.988281 " fill-opacity="1" fill-rule="nonzero"/><path fill="#ffffff" d="M 230.660156 108.050781 L 257.5625 108.050781 C 259.753906 108.050781 261.53125 109.828125 261.53125 112.015625 C 261.53125 113.0625 261.128906 114.011719 260.46875 114.71875 L 209.265625 180.25 C 207.925781 181.96875 205.4375 182.273438 203.71875 180.933594 C 203.425781 180.703125 203.171875 180.441406 202.964844 180.15625 L 189.917969 162.410156 C 188.800781 160.886719 188.9375 158.828125 190.132812 157.460938 L 227.542969 109.582031 C 228.320312 108.585938 229.480469 108.066406 230.65625 108.066406 L 230.65625 108.050781 Z M 249.445312 115.984375 L 232.574219 115.984375 L 198.078125 160.140625 L 206.253906 171.269531 L 249.449219 115.984375 Z M 182.570312 214.421875 L 142.734375 265.40625 C 141.957031 266.402344 140.792969 266.925781 139.621094 266.925781 L 139.621094 266.941406 L 112.710938 266.941406 C 110.519531 266.941406 108.746094 265.164062 108.746094 262.972656 C 108.746094 261.929688 109.148438 260.980469 109.808594 260.269531 L 163.4375 191.632812 C 164.78125 189.914062 167.265625 189.605469 168.984375 190.949219 C 169.277344 191.179688 169.53125 191.441406 169.742188 191.726562 L 182.785156 209.46875 C 183.902344 210.996094 183.769531 213.054688 182.570312 214.421875 Z M 137.703125 259.003906 L 174.628906 211.742188 L 166.453125 200.617188 L 120.832031 259.003906 Z M 137.703125 259.003906 " fill-opacity="1" fill-rule="nonzero"/></svg>