<svg xmlns="http://www.w3.org/2000/svg" xmlns:xlink="http://www.w3.org/1999/xlink" width="500" zoomAndPan="magnify" viewBox="0 0 375 374.999991" height="500" preserveAspectRatio="xMidYMid meet" version="1.0"><path fill="#ffffff" d="M 71.191406 69.789062 C 72.035156 56.121094 75.578125 50.183594 85.757812 45.410156 C 96.710938 40.273438 113.984375 42.660156 134.304688 52.125 C 143.058594 56.203125 143.945312 56.285156 159.285156 54.476562 C 179.675781 52.074219 205.929688 52.078125 224.753906 54.5 C 238.988281 56.332031 239.917969 56.238281 248.695312 52.148438 C 277.539062 38.710938 300.316406 39.59375 308.566406 54.460938 C 312.683594 61.878906 313.445312 81.140625 310.257812 97.027344 C 308.488281 105.832031 308.675781 106.929688 312.9375 112.710938 C 342.933594 153.371094 321.320312 219.273438 269.921875 243.871094 C 265.988281 245.753906 262.671875 246.917969 259.972656 247.867188 C 251.679688 250.78125 249.160156 251.664062 252.210938 265.074219 C 253.679688 271.519531 255.445312 287.558594 256.140625 300.710938 C 257.398438 324.484375 257.382812 324.652344 252.847656 329.503906 C 246.675781 336.101562 237.78125 336.214844 231.761719 329.765625 C 227.828125 325.566406 227.449219 323.578125 227.449219 307.363281 C 227.449219 283.398438 224.59375 267.472656 217.847656 253.824219 C 209.828125 237.582031 215.769531 231.523438 234.121094 227.890625 C 259.625 222.84375 279.546875 208.367188 290.644531 186.808594 C 301.199219 166.3125 302.789062 137.992188 283.707031 120.769531 C 278.277344 114.835938 277.902344 109.464844 281.773438 93.257812 C 283.21875 87.203125 284.4375 79.390625 284.472656 75.890625 C 284.523438 70.375 283.980469 69.539062 280.292969 69.539062 C 277.960938 69.539062 269.050781 72.65625 260.496094 76.472656 L 246.839844 82.5625 C 245.597656 83.117188 244.207031 83.328125 242.835938 83.183594 C 208.113281 79.519531 175.121094 79.460938 140.226562 83.199219 C 138.851562 83.347656 137.453125 83.136719 136.210938 82.578125 L 122.5625 76.488281 C 114.007812 72.667969 105.097656 69.542969 102.761719 69.542969 C 97.375 69.542969 97.292969 73.207031 102.207031 94.953125 C 105.207031 108.234375 107.226562 111.195312 98.550781 121.816406 C 85.542969 137.734375 82.296875 157.507812 89.269531 178.277344 C 98.058594 204.453125 119.582031 222.132812 149.851562 228.03125 C 168.09375 231.589844 172.859375 236.230469 165.894531 255.472656 C 160.410156 270.613281 156.941406 274.515625 148.972656 274.515625 C 138.246094 274.515625 131.53125 265.976562 135.226562 257.035156 C 136.855469 253.097656 136.371094 252.675781 126.328125 249.304688 C 95.664062 239.019531 72.214844 215.972656 61.488281 185.585938 C 53.207031 162.097656 56.851562 131.523438 70.144531 113.046875 C 74.671875 106.753906 74.742188 106.21875 72.628906 94.175781 C 71.4375 87.359375 70.789062 76.382812 71.191406 69.789062 Z M 71.191406 69.789062 " fill-opacity="1" fill-rule="nonzero"/><path fill="#ffffff" d="M 60.484375 241.613281 C 56.066406 235.515625 47.109375 233.867188 40.484375 237.929688 C 33.855469 241.996094 32.066406 250.230469 36.484375 256.328125 C 39.75 260.824219 43.652344 264.523438 46.960938 267.570312 C 47.570312 268.132812 48.167969 268.679688 48.746094 269.203125 C 51.519531 271.742188 53.972656 273.980469 56.433594 276.640625 C 61.882812 282.519531 67.3125 290.4375 70.402344 304.636719 C 71.777344 310.960938 76.71875 314.367188 79.457031 315.859375 C 82.429688 317.472656 85.671875 318.421875 88.34375 319.042969 C 93.808594 320.3125 100.4375 320.96875 106.730469 321.351562 C 113.640625 321.773438 121.121094 321.910156 127.816406 321.949219 C 127.820312 329.269531 134.273438 335.207031 142.238281 335.207031 C 150.199219 335.207031 156.660156 329.269531 156.660156 321.945312 L 156.660156 308.679688 C 156.660156 301.355469 150.199219 295.417969 142.238281 295.417969 C 140.878906 295.417969 139.40625 295.421875 137.847656 295.429688 C 129.382812 295.453125 118.355469 295.480469 108.636719 294.890625 C 103.949219 294.601562 100.101562 294.199219 97.273438 293.707031 C 92.925781 278.003906 85.898438 267.546875 78.398438 259.457031 C 75.082031 255.875 71.652344 252.746094 68.863281 250.199219 C 68.339844 249.726562 67.839844 249.269531 67.363281 248.832031 C 64.140625 245.847656 62.035156 243.742188 60.484375 241.613281 Z M 60.484375 241.613281 " fill-opacity="1" fill-rule="nonzero"/></svg>