<svg xmlns="http://www.w3.org/2000/svg" xmlns:xlink="http://www.w3.org/1999/xlink" width="500" zoomAndPan="magnify" viewBox="0 0 375 374.999991" height="500" preserveAspectRatio="xMidYMid meet" version="1.0"><defs><clipPath id="01cfa7235e"><path d="M 42.789062 42.789062 L 337.539062 42.789062 L 337.539062 337.539062 L 42.789062 337.539062 Z M 42.789062 42.789062 " clip-rule="nonzero"/></clipPath></defs><path fill="#ffffff" d="M 263.199219 262.628906 C 263.382812 262.0625 263.511719 261.457031 263.578125 260.832031 L 266.386719 234.4375 C 266.8125 230.453125 264.550781 226.671875 260.839844 225.160156 L 231.722656 213.296875 C 227.585938 211.613281 222.835938 213.222656 220.574219 217.078125 L 209.898438 235.292969 C 181.789062 221.246094 159 198.457031 144.957031 170.347656 L 163.167969 159.671875 C 167.027344 157.410156 168.636719 152.664062 166.953125 148.523438 L 155.085938 119.410156 C 153.578125 115.699219 149.796875 113.4375 145.8125 113.859375 L 119.417969 116.671875 C 118.789062 116.742188 118.183594 116.871094 117.609375 117.054688 L 117.605469 117.054688 C 117.441406 117.105469 117.265625 117.175781 117.089844 117.257812 C 114.84375 118.304688 113.566406 120.734375 113.851562 123.195312 C 114.53125 129.144531 115.542969 135.03125 116.867188 140.828125 C 116.871094 140.828125 116.867188 140.832031 116.871094 140.835938 C 116.871094 140.839844 116.871094 140.839844 116.871094 140.84375 C 123.660156 170.574219 138.714844 198.003906 160.484375 219.769531 C 182.257812 241.542969 209.691406 256.597656 239.429688 263.386719 C 245.222656 264.707031 251.101562 265.71875 257.042969 266.398438 C 259.511719 266.683594 261.949219 265.402344 262.992188 263.148438 C 263.074219 262.96875 263.144531 262.796875 263.199219 262.628906 " fill-opacity="1" fill-rule="nonzero"/><g clip-path="url(#01cfa7235e)"><path fill="#ffffff" d="M 190.125 55.382812 C 115.828125 55.382812 55.382812 115.828125 55.382812 190.125 C 55.382812 264.421875 115.828125 324.867188 190.125 324.867188 C 264.421875 324.867188 324.867188 264.421875 324.867188 190.125 C 324.867188 115.828125 264.421875 55.382812 190.125 55.382812 Z M 190.125 337.460938 C 170.238281 337.460938 150.941406 333.566406 132.773438 325.878906 C 115.226562 318.457031 99.472656 307.835938 85.941406 294.308594 C 72.414062 280.777344 61.789062 265.019531 54.371094 247.476562 C 46.683594 229.308594 42.789062 210.011719 42.789062 190.125 C 42.789062 170.234375 46.683594 150.941406 54.371094 132.769531 C 61.789062 115.226562 72.414062 99.46875 85.941406 85.941406 C 99.472656 72.414062 115.226562 61.789062 132.773438 54.367188 C 150.941406 46.683594 170.238281 42.789062 190.125 42.789062 C 210.011719 42.789062 229.308594 46.683594 247.476562 54.367188 C 265.019531 61.789062 280.777344 72.414062 294.308594 85.941406 C 307.835938 99.46875 318.457031 115.226562 325.878906 132.769531 C 333.566406 150.941406 337.460938 170.234375 337.460938 190.125 C 337.460938 210.011719 333.566406 229.308594 325.878906 247.476562 C 318.457031 265.019531 307.835938 280.777344 294.308594 294.308594 C 280.777344 307.835938 265.019531 318.457031 247.476562 325.878906 C 229.308594 333.566406 210.011719 337.460938 190.125 337.460938 " fill-opacity="1" fill-rule="nonzero"/></g></svg>