<svg xmlns="http://www.w3.org/2000/svg" xmlns:xlink="http://www.w3.org/1999/xlink" width="500" zoomAndPan="magnify" viewBox="0 0 375 374.999991" height="500" preserveAspectRatio="xMidYMid meet" version="1.0"><defs><clipPath id="c87f1cda3c"><path d="M 35.75 35.75 L 339.5 35.75 L 339.5 339.5 L 35.75 339.5 Z M 35.75 35.75 " clip-rule="nonzero"/></clipPath></defs><g clip-path="url(#c87f1cda3c)"><path fill="#ffffff" d="M 187.496094 35.75 C 103.6875 35.75 35.75 103.6875 35.75 187.496094 C 35.75 271.300781 103.6875 339.242188 187.496094 339.242188 C 271.300781 339.242188 339.242188 271.300781 339.242188 187.496094 C 339.242188 103.6875 271.300781 35.75 187.496094 35.75 Z M 187.496094 327.746094 C 110.035156 327.746094 47.242188 264.953125 47.242188 187.496094 C 47.242188 110.035156 110.035156 47.242188 187.496094 47.242188 C 264.953125 47.242188 327.746094 110.035156 327.746094 187.496094 C 327.746094 264.953125 264.953125 327.746094 187.496094 327.746094 Z M 187.496094 327.746094 " fill-opacity="1" fill-rule="nonzero"/></g><path fill="#ffffff" d="M 169.683594 261.875 C 165.878906 262.242188 162.839844 262.660156 159.785156 262.804688 C 142.472656 263.625 129.652344 256.796875 121.878906 240.878906 C 119.402344 235.8125 116.234375 231.027344 112.933594 226.433594 C 110.953125 223.675781 108.175781 221.460938 105.609375 219.164062 L 105.578125 219.136719 C 103.992188 217.738281 104.691406 215.128906 106.773438 214.777344 C 109.222656 214.367188 111.5 214.808594 113.722656 215.375 C 120.6875 217.148438 125.15625 222.082031 128.714844 227.984375 C 136.765625 241.335938 150.632812 246.902344 165.628906 242.925781 C 168.171875 242.25 169.296875 241.15625 169.851562 238.378906 C 170.496094 235.140625 171.375 231.949219 172.320312 228.695312 C 172.457031 228.214844 172.546875 227.726562 172.585938 227.230469 C 172.625 226.734375 172.617188 226.238281 172.554688 225.742188 C 172.492188 225.246094 172.382812 224.761719 172.222656 224.289062 C 172.0625 223.816406 171.859375 223.367188 171.605469 222.933594 C 171.355469 222.503906 171.0625 222.101562 170.730469 221.730469 C 170.394531 221.359375 170.027344 221.023438 169.628906 220.726562 C 169.226562 220.429688 168.800781 220.179688 168.347656 219.96875 C 167.894531 219.757812 167.425781 219.59375 166.941406 219.480469 L 166.855469 219.460938 C 151.296875 215.738281 137.859375 208.808594 129.199219 194.589844 C 124.566406 186.988281 122.277344 178.613281 122.394531 169.886719 C 122.527344 159.988281 123.402344 150.070312 124.539062 140.226562 C 125.339844 133.296875 128.550781 127.15625 133.535156 122.175781 C 135.273438 120.4375 135.417969 118.980469 134.582031 116.730469 C 131.148438 107.523438 131.746094 98.292969 134.792969 89.0625 C 135.652344 86.460938 136.871094 86.089844 139.363281 86.871094 C 147.070312 89.296875 152.820312 94.3125 157.875 100.320312 L 157.929688 100.382812 C 158.5625 101.148438 159.296875 101.800781 160.128906 102.34375 C 160.957031 102.886719 161.851562 103.296875 162.804688 103.570312 C 163.757812 103.847656 164.730469 103.976562 165.722656 103.960938 C 166.714844 103.945312 167.683594 103.78125 168.628906 103.476562 C 184.625 98.230469 208.894531 98.160156 223.984375 103.351562 C 224.929688 103.675781 225.90625 103.847656 226.90625 103.875 C 227.90625 103.902344 228.890625 103.78125 229.851562 103.507812 C 230.816406 103.238281 231.71875 102.828125 232.558594 102.285156 C 233.398438 101.742188 234.140625 101.085938 234.78125 100.316406 L 234.828125 100.257812 C 239.894531 94.25 245.667969 89.273438 253.371094 86.839844 C 255.957031 86.023438 257.058594 86.644531 257.875 89.160156 C 260.882812 98.394531 261.394531 107.566406 258.144531 116.871094 C 257.6875 118.183594 257.703125 120.460938 258.519531 121.289062 C 265.425781 128.292969 268.449219 136.992188 269.21875 146.414062 C 269.960938 155.519531 270.761719 164.78125 269.917969 173.820312 C 267.71875 197.332031 253.421875 211.027344 231.679688 217.835938 C 229.820312 218.417969 227.929688 218.90625 226.003906 219.363281 C 225.5 219.480469 225.015625 219.648438 224.550781 219.871094 C 224.085938 220.089844 223.644531 220.355469 223.234375 220.667969 C 222.824219 220.980469 222.453125 221.332031 222.117188 221.722656 C 221.777344 222.113281 221.488281 222.535156 221.238281 222.984375 C 220.992188 223.4375 220.792969 223.910156 220.644531 224.402344 C 220.492188 224.898438 220.398438 225.402344 220.355469 225.914062 C 220.3125 226.429688 220.320312 226.941406 220.386719 227.453125 C 220.449219 227.964844 220.566406 228.464844 220.738281 228.949219 C 223.699219 237.53125 223.246094 246.699219 223.199219 255.808594 C 223.1875 257.902344 223.183594 259.996094 223.179688 262.09375 C 223.175781 262.957031 223.132812 263.820312 223.046875 264.683594 C 222.960938 265.542969 222.832031 266.398438 222.660156 267.246094 C 222.488281 268.09375 222.277344 268.929688 222.027344 269.757812 C 221.773438 270.585938 221.480469 271.398438 221.148438 272.199219 C 220.816406 272.996094 220.445312 273.777344 220.035156 274.539062 C 219.628906 275.300781 219.183594 276.042969 218.699219 276.761719 C 218.21875 277.480469 217.703125 278.171875 217.152344 278.839844 C 216.605469 279.507812 216.023438 280.148438 215.410156 280.757812 C 214.800781 281.371094 214.160156 281.949219 213.488281 282.496094 C 212.820312 283.046875 212.125 283.558594 211.40625 284.039062 C 210.6875 284.519531 209.945312 284.964844 209.179688 285.371094 C 208.417969 285.777344 207.636719 286.144531 206.835938 286.476562 C 206.039062 286.808594 205.222656 287.097656 204.398438 287.347656 C 203.570312 287.601562 202.730469 287.808594 201.882812 287.976562 C 201.035156 288.144531 200.179688 288.273438 199.316406 288.355469 C 198.457031 288.441406 197.59375 288.484375 196.730469 288.484375 L 196.132812 288.484375 C 195.265625 288.484375 194.402344 288.441406 193.539062 288.355469 C 192.679688 288.273438 191.824219 288.144531 190.972656 287.976562 C 190.125 287.808594 189.285156 287.597656 188.457031 287.34375 C 187.625 287.09375 186.8125 286.800781 186.011719 286.472656 C 185.210938 286.140625 184.429688 285.769531 183.664062 285.359375 C 182.902344 284.953125 182.160156 284.507812 181.4375 284.027344 C 180.71875 283.546875 180.023438 283.03125 179.355469 282.480469 C 178.683594 281.929688 178.042969 281.351562 177.429688 280.738281 C 176.816406 280.125 176.238281 279.484375 175.6875 278.8125 C 175.136719 278.144531 174.621094 277.449219 174.140625 276.730469 C 173.660156 276.007812 173.214844 275.265625 172.808594 274.503906 C 172.398438 273.738281 172.027344 272.957031 171.699219 272.15625 C 171.367188 271.355469 171.074219 270.542969 170.824219 269.710938 C 170.570312 268.882812 170.359375 268.042969 170.191406 267.195312 C 170.023438 266.34375 169.894531 265.488281 169.8125 264.628906 C 169.726562 263.765625 169.683594 262.902344 169.683594 262.035156 Z M 169.683594 261.875 " fill-opacity="1" fill-rule="nonzero"/></svg>