<svg xmlns="http://www.w3.org/2000/svg" xmlns:xlink="http://www.w3.org/1999/xlink" width="500" zoomAndPan="magnify" viewBox="0 0 375 374.999991" height="500" preserveAspectRatio="xMidYMid meet" version="1.0"><defs><clipPath id="96fc916ed5"><path d="M 33.792969 31 L 341.292969 31 L 341.292969 337.582031 L 33.792969 337.582031 Z M 33.792969 31 " clip-rule="nonzero"/></clipPath><clipPath id="3a30d77452"><path d="M 91 30.082031 L 112 30.082031 L 112 74 L 91 74 Z M 91 30.082031 " clip-rule="nonzero"/></clipPath></defs><g clip-path="url(#96fc916ed5)"><path fill="#ffffff" d="M 336.824219 110.710938 L 316.992188 107.878906 C 313.863281 107.433594 312.976562 104.871094 312.777344 104.097656 C 312.578125 103.324219 312.125 100.648438 314.652344 98.75 L 330.679688 86.734375 C 331.765625 85.925781 332.480469 84.71875 332.671875 83.382812 C 332.863281 82.039062 332.515625 80.683594 331.703125 79.605469 L 313.347656 55.132812 C 312.535156 54.046875 311.328125 53.335938 309.992188 53.140625 C 308.625 52.945312 307.296875 53.296875 306.214844 54.109375 L 290.191406 66.125 C 287.660156 68.015625 285.21875 66.84375 284.527344 66.429688 C 283.839844 66.023438 281.636719 64.453125 282.085938 61.328125 L 284.921875 41.496094 C 285.320312 38.707031 283.382812 36.125 280.59375 35.726562 L 250.304688 31.40625 C 248.96875 31.214844 247.609375 31.566406 246.527344 32.375 C 245.441406 33.1875 244.730469 34.394531 244.535156 35.730469 L 241.699219 55.5625 C 241.257812 58.691406 238.691406 59.578125 237.921875 59.777344 C 237.144531 59.980469 234.476562 60.429688 232.574219 57.902344 L 220.558594 41.875 C 219.75 40.789062 218.539062 40.074219 217.207031 39.878906 C 215.878906 39.6875 214.507812 40.039062 213.425781 40.847656 L 198.101562 52.34375 C 191.082031 51.625 184.070312 51.601562 177.253906 52.351562 C 132.042969 57.339844 96.125 93.871094 91.847656 139.199219 C 91.710938 140.636719 91.664062 142.070312 91.585938 143.507812 L 90.050781 143.507812 C 87.640625 143.507812 85.554688 145.195312 85.0625 147.558594 L 81.542969 164.3125 L 67.453125 154.605469 C 65.433594 153.203125 62.691406 153.457031 60.957031 155.195312 L 45.664062 170.488281 C 43.925781 172.226562 43.671875 174.960938 45.074219 176.984375 L 54.78125 191.070312 L 38.023438 194.597656 C 35.664062 195.097656 33.976562 197.179688 33.976562 199.589844 L 33.976562 219.980469 C 33.976562 222.390625 35.664062 224.472656 38.023438 224.972656 L 54.78125 228.496094 L 45.074219 242.582031 C 43.675781 244.605469 43.925781 247.339844 45.664062 249.074219 L 60.957031 264.367188 C 62.695312 266.105469 65.433594 266.367188 67.453125 264.960938 L 81.542969 255.25 L 85.0625 272.003906 C 85.554688 274.371094 87.644531 276.058594 90.050781 276.058594 L 110.445312 276.058594 C 112.855469 276.058594 114.933594 274.371094 115.433594 272.011719 L 118.957031 255.253906 L 133.042969 264.960938 C 135.0625 266.363281 137.800781 266.105469 139.539062 264.367188 L 147.476562 256.429688 L 147.476562 270.960938 C 147.476562 278.476562 151.605469 284.980469 157.671875 288.519531 L 157.671875 316.84375 C 157.671875 328.089844 166.816406 337.234375 178.0625 337.234375 L 198.453125 337.234375 C 209.699219 337.234375 218.847656 328.089844 218.847656 316.84375 L 218.847656 288.519531 C 224.914062 284.980469 229.042969 278.476562 229.042969 270.960938 L 229.042969 250.78125 C 229.042969 242.535156 233.453125 234.75 240.835938 229.972656 C 245.050781 227.242188 249.085938 224.152344 252.835938 220.796875 L 246.035156 213.199219 C 242.679688 216.207031 239.066406 218.972656 235.292969 221.414062 C 224.996094 228.082031 218.847656 239.0625 218.847656 250.78125 L 218.847656 270.960938 C 218.847656 276.582031 214.273438 281.15625 208.652344 281.15625 L 167.867188 281.15625 C 162.246094 281.15625 157.671875 276.582031 157.671875 270.960938 L 157.671875 250.359375 C 157.671875 238.84375 151.625 228.089844 141.5 221.585938 C 114.054688 203.964844 98.914062 172.765625 101.992188 140.15625 C 105.820312 99.625 137.941406 66.957031 178.367188 62.488281 C 181.269531 62.167969 184.207031 62.03125 187.164062 62.011719 C 187.113281 62.203125 186.996094 62.367188 186.96875 62.566406 C 186.78125 63.90625 187.128906 65.261719 187.9375 66.34375 L 199.953125 82.367188 C 201.851562 84.902344 200.671875 87.34375 200.265625 88.027344 C 199.851562 88.714844 198.257812 90.894531 195.15625 90.472656 L 175.324219 87.636719 C 172.535156 87.257812 169.953125 89.179688 169.554688 91.964844 L 165.226562 122.242188 C 165.039062 123.582031 165.382812 124.941406 166.195312 126.019531 C 167.003906 127.105469 168.214844 127.820312 169.550781 128.015625 L 189.378906 130.847656 C 192.511719 131.292969 193.402344 133.855469 193.601562 134.625 C 193.796875 135.394531 194.25 138.078125 191.71875 139.972656 L 175.699219 151.988281 C 173.445312 153.675781 172.992188 156.875 174.679688 159.121094 L 193.03125 183.59375 C 194.714844 185.84375 197.914062 186.292969 200.164062 184.613281 L 216.195312 172.59375 C 218.71875 170.699219 221.15625 171.875 221.84375 172.285156 C 222.53125 172.691406 224.738281 174.269531 224.292969 177.394531 L 221.457031 197.222656 C 221.058594 200.011719 222.996094 202.597656 225.785156 202.996094 L 256.0625 207.324219 C 256.300781 207.359375 256.546875 207.375 256.785156 207.375 C 257.882812 207.375 258.957031 207.023438 259.84375 206.355469 C 260.929688 205.542969 261.644531 204.335938 261.835938 203 L 264.671875 183.167969 C 265.117188 180.039062 267.679688 179.152344 268.449219 178.953125 C 269.222656 178.75 271.890625 178.300781 273.796875 180.828125 L 285.8125 196.851562 C 287.496094 199.105469 290.691406 199.554688 292.945312 197.871094 L 317.414062 179.519531 C 319.667969 177.832031 320.128906 174.632812 318.433594 172.386719 L 306.417969 156.359375 C 304.527344 153.828125 305.707031 151.386719 306.113281 150.703125 C 306.515625 150.011719 308.074219 147.800781 311.214844 148.257812 L 331.046875 151.09375 C 333.863281 151.496094 336.421875 149.554688 336.816406 146.765625 L 341.144531 116.488281 C 341.335938 115.148438 340.988281 113.789062 340.179688 112.710938 C 339.367188 111.617188 338.160156 110.90625 336.824219 110.710938 Z M 100.441406 189.414062 C 105.101562 199.460938 111.472656 208.683594 119.367188 216.667969 C 116.496094 224.621094 108.867188 230.175781 100.25 230.175781 C 89.003906 230.175781 79.855469 221.03125 79.855469 209.785156 C 79.855469 198.539062 89.003906 189.394531 100.25 189.394531 C 100.3125 189.394531 100.375 189.414062 100.441406 189.414062 Z M 198.453125 327.039062 L 178.0625 327.039062 C 172.441406 327.039062 167.867188 322.464844 167.867188 316.84375 L 167.867188 311.742188 L 208.652344 311.742188 L 208.652344 316.84375 C 208.652344 322.464844 204.078125 327.039062 198.453125 327.039062 Z M 208.652344 291.351562 L 208.652344 301.546875 L 167.867188 301.546875 L 167.867188 291.351562 Z M 146.265625 243.222656 L 135.332031 254.15625 L 124.742188 246.855469 C 121.929688 244.910156 118.351562 244.507812 115.167969 245.78125 C 111.992188 247.050781 109.683594 249.808594 108.980469 253.148438 L 106.308594 265.863281 L 94.191406 265.863281 L 91.527344 253.152344 C 90.816406 249.808594 88.503906 247.054688 85.332031 245.785156 C 82.15625 244.523438 78.582031 244.914062 75.757812 246.863281 L 65.167969 254.164062 L 55.878906 244.875 L 63.175781 234.289062 C 65.125 231.476562 65.527344 227.898438 64.261719 224.71875 C 62.992188 221.539062 60.234375 219.226562 56.890625 218.523438 L 44.179688 215.851562 L 44.179688 203.734375 L 56.886719 201.0625 C 60.234375 200.359375 62.992188 198.042969 64.261719 194.867188 C 65.527344 191.6875 65.125 188.109375 63.179688 185.300781 L 55.878906 174.710938 L 65.167969 165.421875 L 75.761719 172.722656 C 78.578125 174.664062 82.15625 175.058594 85.328125 173.796875 C 88.503906 172.535156 90.816406 169.777344 91.527344 166.425781 L 92.417969 162.179688 C 93.25 168.089844 94.585938 173.875 96.460938 179.46875 C 81.375 181.332031 69.660156 194.207031 69.660156 209.785156 C 69.660156 226.652344 83.378906 240.371094 100.25 240.371094 C 111.789062 240.371094 122.109375 233.703125 127.277344 223.804688 C 130.054688 226.058594 132.9375 228.210938 135.996094 230.171875 C 140.984375 233.378906 144.539062 238.011719 146.265625 243.222656 Z M 327.449219 140.269531 L 312.667969 138.160156 C 306.375 137.257812 300.5625 140.085938 297.351562 145.503906 C 294.132812 150.929688 294.484375 157.433594 298.273438 162.472656 L 307.230469 174.421875 L 290.921875 186.652344 L 281.960938 174.710938 C 278.175781 169.664062 272.039062 167.488281 265.925781 169.074219 C 259.824219 170.636719 255.46875 175.484375 254.578125 181.722656 L 252.46875 196.5 L 232.285156 193.621094 L 234.394531 178.839844 C 235.289062 172.59375 232.46875 166.726562 227.042969 163.515625 C 221.625 160.304688 215.121094 160.652344 210.082031 164.445312 L 198.132812 173.402344 L 185.902344 157.09375 L 197.84375 148.128906 C 202.890625 144.347656 205.050781 138.203125 203.480469 132.097656 C 201.917969 125.988281 197.066406 121.640625 190.832031 120.75 L 176.054688 118.640625 L 178.933594 98.457031 L 193.714844 100.566406 C 199.980469 101.449219 205.828125 98.640625 209.039062 93.21875 C 212.25 87.796875 211.898438 81.292969 208.109375 76.25 L 199.152344 64.304688 L 215.460938 52.070312 L 224.425781 64.015625 C 228.207031 69.054688 234.339844 71.222656 240.457031 69.652344 C 246.558594 68.085938 250.914062 63.238281 251.804688 57.003906 L 253.914062 42.226562 L 274.097656 45.105469 L 271.988281 59.886719 C 271.09375 66.125 273.914062 71.992188 279.332031 75.203125 C 284.753906 78.421875 291.261719 78.0625 296.304688 74.28125 L 308.25 65.324219 L 320.484375 81.632812 L 308.539062 90.59375 C 303.5 94.378906 301.335938 100.515625 302.902344 106.628906 C 304.464844 112.730469 309.316406 117.085938 315.550781 117.976562 L 330.328125 120.085938 Z M 327.449219 140.269531 " fill-opacity="1" fill-rule="nonzero"/></g><path fill="#ffffff" d="M 253.1875 78.585938 C 230.699219 78.585938 212.402344 96.878906 212.402344 119.367188 C 212.402344 141.855469 230.699219 160.152344 253.1875 160.152344 C 275.671875 160.152344 293.96875 141.855469 293.96875 119.367188 C 293.96875 96.878906 275.671875 78.585938 253.1875 78.585938 Z M 253.1875 149.957031 C 236.316406 149.957031 222.597656 136.238281 222.597656 119.367188 C 222.597656 102.5 236.316406 88.78125 253.1875 88.78125 C 270.054688 88.78125 283.773438 102.5 283.773438 119.367188 C 283.773438 136.238281 270.054688 149.957031 253.1875 149.957031 Z M 253.1875 149.957031 " fill-opacity="1" fill-rule="nonzero"/><path fill="#ffffff" d="M 183.160156 255.667969 L 193.355469 255.667969 L 193.355469 270.960938 L 183.160156 270.960938 Z M 183.160156 255.667969 " fill-opacity="1" fill-rule="nonzero"/><path fill="#ffffff" d="M 165.960938 205.601562 C 142.34375 196.339844 127.082031 173.976562 127.082031 148.609375 C 127.082031 127.484375 137.765625 108.136719 155.652344 96.84375 L 150.207031 88.222656 C 129.34375 101.390625 116.886719 123.964844 116.886719 148.609375 C 116.886719 178.203125 134.691406 204.300781 162.238281 215.085938 C 174.949219 220.074219 183.160156 231.992188 183.160156 245.46875 L 193.355469 245.46875 C 193.355469 227.765625 182.605469 212.113281 165.960938 205.601562 Z M 165.960938 205.601562 " fill-opacity="1" fill-rule="nonzero"/><path fill="#ffffff" d="M 285.121094 219.980469 L 320.804688 219.980469 L 320.804688 230.175781 L 285.121094 230.175781 Z M 285.121094 219.980469 " fill-opacity="1" fill-rule="nonzero"/><path fill="#ffffff" d="M 276.761719 254.480469 L 283.285156 246.648438 L 313.875 272.132812 L 307.351562 279.96875 Z M 276.761719 254.480469 " fill-opacity="1" fill-rule="nonzero"/><path fill="#ffffff" d="M 254.53125 260.765625 L 264.726562 260.765625 L 264.726562 296.449219 L 254.53125 296.449219 Z M 254.53125 260.765625 " fill-opacity="1" fill-rule="nonzero"/><path fill="#ffffff" d="M 39.179688 118.175781 L 79.960938 107.980469 L 82.433594 117.867188 L 41.652344 128.0625 Z M 39.179688 118.175781 " fill-opacity="1" fill-rule="nonzero"/><path fill="#ffffff" d="M 47.652344 66.09375 L 53.574219 57.800781 L 89.257812 83.289062 L 83.335938 91.582031 Z M 47.652344 66.09375 " fill-opacity="1" fill-rule="nonzero"/><g clip-path="url(#3a30d77452)"><path fill="#ffffff" d="M 91.328125 32.613281 L 101.207031 30.085938 L 111.632812 70.871094 L 101.753906 73.394531 Z M 91.328125 32.613281 " fill-opacity="1" fill-rule="nonzero"/></g></svg>